<svg xmlns="http://www.w3.org/2000/svg" viewBox="0 0 1753.66687 812.8"><g id="e1f0935e-c0d2-48ba-a37e-c8baab1d61a7" data-name="Layer 2"><g id="a896de70-4339-444d-88d9-3b37547311ab" data-name="Layer 1"><path d="M169.7212,511.4494q-7.36244-16.83659-24.89815-28.57937t-44.18411-11.74755a85.40759,85.40759,0,0,0-33.31168,6.31133q-15.08157,6.31373-23.8423,17.355a38.30948,38.30948,0,0,0-8.76548,24.375,44.02165,44.02165,0,0,0,4.55634,19.286q6.66328,12.977,21.91608,21.21218,15.2528,8.24706,42.957,18.76279,21.73773,8.06871,35.41387,14.54889a111.46221,111.46221,0,0,1,25.07413,16.30864,52.82333,52.82333,0,0,1,15.95194,23.14315,48.76566,48.76566,0,0,1,2.45414,16.12792q0,16.13742-9.6406,31.20949-9.65249,15.08157-29.10254,24.72217-19.46193,9.64536-47.51337,9.6406-44.18888,0-68.03117-18.58206Q4.90591,676.95908,0,649.95636l6.31609-.35195q7.36244,23.49985,28.57461,39.80374Q56.10765,705.70967,90.82237,705.712q17.5357,0,30.33436-6.31133,12.79864-6.31373,19.46194-16.47987A39.04068,39.04068,0,0,0,147.2772,661.176a36.29278,36.29278,0,0,0-7.71439-22.43925,75.83084,75.83084,0,0,0-24.37022-20.33706Q100.28223,610.331,74.6897,600.512q-24.54145-9.80944-38.57192-17.179a75.54107,75.54107,0,0,1-23.8423-19.46194q-9.82371-12.0995-9.82134-30.33437a56.76445,56.76445,0,0,1,11.92829-35.06192q11.914-15.78072,33.4829-24.89815,21.57363-9.11743,48.92118-9.11743,7.36243,0,10.86767.352,28.401,1.755,45.75838,15.25279,17.36449,13.50493,23.32388,31.38547Z" style="fill:#fff"/><path d="M331.19534,691.56742q-8.18286-23.95644-21.6212-59.903-1.17-4.08786-3.21512-9.35048h-74.2236L207.2991,691.56742h-7.30536l73.0536-204.55008h13.7356q45.28752,125.95326,77.14384,204.55008Zm-96.71992-75.97384H303.7289q-15.20286-41.2068-35.65168-94.38468Z" style="fill:#fff"/><path d="M530.7753,487.01734h6.72036V691.56742h-9.35048q-17.82108-25.41894-44.70728-58.44288-26.88858-33.0168-71.8836-86.78444l-24.84108-29.80644V691.56742h-6.72036V487.01734h23.08608q17.23608,23.96358,36.96436,48.65484,19.7259,24.6984,50.115,61.51056,26.30358,31.85394,40.617,49.6774Z" style="fill:#fff"/><path d="M800.774,589.29238q0,39.7443,1.17,102.275H771.84742q1.16287-39.73716,1.17-97.88992,0-47.34216-.87988-88.83432L696.45382,691.56742h-8.76548q-16.07322-42.07716-51.13752-126.82124-20.45358-49.09-25.13119-61.073V691.56742h-6.72036V487.01734h32.43655q14.61072,39.16644,27.61388,71.00848,12.99842,31.85394,33.45912,80.06884,1.16288,2.925,2.925,6.72036,1.74786,3.8025,3.50049,8.47536l67.21311-165.688v-.585H801.944Q800.774,548.97022,800.774,589.29238Z" style="fill:#fff"/><path d="M855.70687,487.01734q-1.17,41.2068-1.16525,102.275,0,60.49038,1.16525,102.275H825.32018q1.45537-52.00788,1.46012-102.275,0-50.55252-1.46012-102.275Z" style="fill:#fff"/><path d="M1069.02242,642.18252q-7.89036,21.33822-28.34631,36.23668-20.46072,14.90322-52.59764,14.90084-34.77894,0-59.46544-14.7534-24.6984-14.7534-37.1118-38.57192a109.70613,109.70613,0,0,1,0-101.39992q12.4134-23.81376,36.81692-38.57192,24.39876-14.7534,58.59032-14.75816,33.8943,0,54.35264,14.9056,20.44644,14.90322,27.17632,36.23192l-20.16584.29488a69.3127,69.3127,0,0,0-20.59864-33.169q-15.053-13.5834-39.00948-13.58816-26.30358,0-44.5646,12.713a78.7804,78.7804,0,0,0-27.46644,33.6018,110.695,110.695,0,0,0-9.2078,45.1496,121.377,121.377,0,0,0,9.35048,47.04728A93.96982,93.96982,0,0,0,944.389,665.8536q18.2634,14.90322,43.3946,17.24084a77.85016,77.85016,0,0,0,11.10548.585q24.24894,0,40.91191-12.128,16.6511-12.1209,23.9612-29.659Z" style="fill:#fff"/><path d="M1253.40191,487.01734q-1.17,41.2068-1.17,102.275,0,60.49038,1.17,102.275h-30.39144q1.16286-38.27466,1.17-93.50956H1118.98519q0,55.23252,1.16524,93.50956h-30.38668q1.45536-52.00788,1.46012-102.275,0-50.55252-1.46012-102.275h30.38668q-1.17,52.6-1.16524,85.0342v19.286h105.19528v-19.286q0-32.4318-1.17-85.0342Z" style="fill:#fff"/><path d="M1414.11983,684.84706v6.72036h-137.337q1.45536-52.00788,1.46012-102.275,0-50.55252-1.46012-102.275h130.0316v6.43024h-99.935q-.8775,39.7443-.87512,85.90932v20.16584H1378.178v6.72036h-72.17372q0,42.36966.87512,79.189Z" style="fill:#fff"/><path d="M1566.07226,684.84706v6.72036H1434.57579q1.45536-52.00788,1.46012-102.275,0-50.55252-1.46012-102.275h30.38668q-1.4625,52.6-1.46012,103.445,0,36.53394,1.17,94.96968Z" style="fill:#fff"/><path d="M1753.66687,703.95942V712.021H1588.85871q1.74786-62.40946,1.755-122.731,0-60.65446-1.755-122.72624h156.04268v7.71439h-119.9249q-1.04872,47.69172-1.0511,103.09308v24.19425h86.61322v8.06634h-86.61322q0,50.845,1.0511,95.02675Z" style="fill:#fff"/><path d="M1031.29649,351.272a208.84858,208.84858,0,0,0,55.20458-141.60674C1086.50107,94.05651,992.44456,0,876.83343,0S667.1658,94.05651,667.1658,209.66526A208.84686,208.84686,0,0,0,722.415,351.31867a4.70768,4.70768,0,0,0,.92863.97381A210.77675,210.77675,0,0,0,784.02421,397.605a4.69451,4.69451,0,0,0,1.07607.552,208.05355,208.05355,0,0,0,74.58506,20.41613c.09215.00535.17.0535.264.0535.04281,0,.07729-.02289.1195-.02408,5.53728.44054,11.11618.73036,16.76463.73036s11.22736-.28982,16.76464-.73036c.04221.00119.07669.02408.1195.02408.09393,0,.17241-.04815.26455-.0535a208.04085,208.04085,0,0,0,74.80563-20.53,4.60418,4.60418,0,0,0,.428-.21938A210.76755,210.76755,0,0,0,1030.262,352.357,4.73082,4.73082,0,0,0,1031.29649,351.272ZM876.83343,9.74048c110.2415,0,199.92716,89.68566,199.92716,199.92478a198.945,198.945,0,0,1-44.517,125.58108V214.18117a4.87034,4.87034,0,0,0-2.58256-4.29951l-57.75324-30.71129V151.73366a4.87036,4.87036,0,0,0-2.58256-4.29951l-90.20407-47.97a4.87025,4.87025,0,0,0-4.57537,0l-90.20407,47.97a4.87034,4.87034,0,0,0-2.58256,4.29951v27.43671l-57.758,30.71129a4.87034,4.87034,0,0,0-2.58256,4.29951V335.2401a198.94167,198.94167,0,0,1-44.51228-125.57484C676.90628,99.42614,766.59194,9.74048,876.83343,9.74048ZM962.16727,390.4206a198.31049,198.31049,0,0,1-63.57946,17.96674v-80.249a200.6729,200.6729,0,0,1,63.57946,17.94118Zm9.74048-39.41435a198.8065,198.8065,0,0,1,26.55089,17.179,200.48211,200.48211,0,0,1-26.55089,17.31545Zm-73.31994-32.66277V246.53925a21.8559,21.8559,0,0,0-6.78219-15.7831,21.47079,21.47079,0,0,0-16.13743-5.94036c-11.543.604-20.58913,10.56567-20.58913,22.67944v70.84825a210.42173,210.42173,0,0,0-63.57946,17.01731V154.65865l85.33383-45.37789,85.33384,45.37789V335.36079A210.42173,210.42173,0,0,0,898.58781,318.34348Zm-9.74048-.79575c-3.99512-.231-7.998-.39-12.0139-.39s-8.01877.159-12.01389.39v-70.0525c0-6.81549,5.09378-12.625,11.36231-12.95323a12.01585,12.01585,0,0,1,12.66548,11.99725ZM791.4996,346.07954a200.6729,200.6729,0,0,1,63.57946-17.94118v80.249A198.31049,198.31049,0,0,1,791.4996,390.4206Zm-9.74048,39.42118a200.48081,200.48081,0,0,1-26.55089-17.31545,198.8065,198.8065,0,0,1,26.55089-17.179ZM731.159,346.38541V217.10854l50.60008-26.9076V339.96469a208.61847,208.61847,0,0,0-34.314,21.933A201.58545,201.58545,0,0,1,731.159,346.38541Zm133.6605,62.81343v-81.8925c3.99453-.242,7.99737-.40813,12.01389-.40813s8.01937.16617,12.0139.40813v81.8925c-3.97848.23721-7.97716.39357-12.0139.39357S868.798,409.43605,864.81954,409.19884Zm141.40223-47.30113a208.618,208.618,0,0,0-34.314-21.933V190.20332l50.59532,26.90522V346.39017A201.66578,201.66578,0,0,1,1006.22177,361.89771Z" style="fill:#fff"/><path d="M876.83343,148.1214a21.75438,21.75438,0,1,0,21.75438,21.75438A21.7797,21.7797,0,0,0,876.83343,148.1214Zm0,33.76827a12.0139,12.0139,0,1,1,12.0139-12.01389A12.02653,12.02653,0,0,1,876.83343,181.88967Z" style="fill:#fff"/><path d="M373.17109,812.8v-6.59195l6.806-1.28414V758.395l-6.806-1.28414v-6.63475H402.4068a26.97823,26.97823,0,0,1,11.96157,2.43987,17.93185,17.93185,0,0,1,7.643,6.787,20.78929,20.78929,0,0,1,0,20.32754,17.63132,17.63132,0,0,1-7.643,6.74415,27.38891,27.38891,0,0,1-11.96157,2.39707H390.76388v15.75218l6.806,1.28414V812.8Zm17.59279-31.97522H402.4068q5.73585,0,8.60377-3.082a10.98831,10.98831,0,0,0,2.86792-7.79048,11.41438,11.41438,0,0,0-2.86792-7.9617q-2.86792-3.16755-8.60377-3.16756H390.76388Z" style="fill:#fff"/><path d="M517.03817,812.8v-6.59195l6.806-1.28414V758.395l-6.806-1.28414v-6.63475h24.356v6.63475L534.631,758.395v46.52887l6.76316,1.28414V812.8Z" style="fill:#fff"/><path d="M635.39356,812.8v-7.448l31.24753-46.52887H645.4527l-.89891,8.00451h-8.38974l.29963-16.35145H679.611v7.234L648.235,804.49586h23.71388l.89891-8.34694h8.34694l-.428,16.65108Z" style="fill:#fff"/><path d="M775.023,812.8v-7.448l31.24753-46.52887h-21.1884l-.8989,8.00451h-8.38975l.29964-16.35145h43.14728v7.234l-31.37595,46.78569h23.71388l.8989-8.34694h8.347L820.39609,812.8Z" style="fill:#fff"/><path d="M914.0079,812.8v-6.59195l6.81073-1.28414V758.395l-6.81073-1.28414v-6.63475h47.47533V766.528h-8.38975l-.73244-7.74767H931.60545v17.63559H953.474v8.34695H931.60545v19.81864h21.91608l.72293-7.9189h8.30414V812.8Z" style="fill:#fff"/><path d="M1057.62291,812.8v-6.59195l6.80121-1.28414V758.395l-6.80121-1.28414v-6.63475h28.8029a30.02333,30.02333,0,0,1,11.98536,2.15926,16.71456,16.71456,0,0,1,7.58121,6.18768,19.15755,19.15755,0,0,1,.019,19.26218,17.27841,17.27841,0,0,1-7.22926,6.31134,25.55427,25.55427,0,0,1-10.901,2.33524l-12.67024.12841v18.06365l6.81073,1.28414V812.8Zm17.588-34.32948h10.74878q6.07828,0,8.989-2.46366,2.91073-2.45415,2.91073-7.16743a9.66878,9.66878,0,0,0-2.82512-7.30061q-2.82511-2.711-8.60853-2.71573h-11.21487ZM1098.15434,812.8l-11.89975-28.67925,10.10195-1.66938,10.10194,22.64376,4.87975,1.02731V812.8Z" style="fill:#fff"/><path d="M1205.1284,812.8v-6.59195l6.80121-1.28414V758.395l-6.80121-1.28414v-6.63475h24.3512v6.63475l-6.76317,1.28414v46.52887l6.76317,1.28414V812.8Z" style="fill:#fff"/><path d="M1319.931,812.8v-6.59195l4.53731-.64207,20.63194-55.08983h10.48243l20.3751,55.08983,4.53732.64207V812.8H1360.6812v-6.59195l4.4517-.81329-3.30072-9.80231H1338.632l-3.37683,9.80231,4.48976.81329V812.8Zm21.52608-25.46888h17.59755l-8.09487-23.07181-.55171-1.66939h-.25683l-.59927,1.755Z" style="fill:#fff"/></g></g></svg>